<svg width="16" height="17" viewBox="0 0 16 17" fill="none" xmlns="http://www.w3.org/2000/svg">
<path d="M11.5 10.65C11.225 10.65 11 10.875 11 11.15V13.15C11 13.425 10.775 13.65 10.5 13.65L3.5 13.65C3.225 13.65 3 13.425 3 13.15V11.15C3 10.875 2.775 10.65 2.5 10.65C2.225 10.65 2 10.875 2 11.15V13.15C2 13.975 2.675 14.65 3.5 14.65L10.5 14.65C11.325 14.65 12 13.975 12 13.15V11.15C12 10.875 11.775 10.65 11.5 10.65Z" fill="black"/>
<path d="M5.5 5.65002C5.775 5.65002 6 5.42502 6 5.15002C6 4.87502 5.775 4.65002 5.5 4.65002L3.5 4.65003C2.675 4.65003 2 5.32503 2 6.15003V11.15H3L3 6.15003C3 5.87503 3.225 5.65003 3.5 5.65003L5.5 5.65002Z" fill="black"/>
<path d="M13.4684 2.65186C13.6063 2.6554 13.7301 2.70843 13.822 2.80035C13.9139 2.89228 13.9669 3.01602 13.9705 3.15391V6.68944C13.9705 6.96521 13.7477 7.18795 13.472 7.18795C13.1962 7.18795 12.9735 6.96521 12.9735 6.68944L12.9699 4.35952L9.2258 8.10365C9.03135 8.29811 8.71315 8.29811 8.51869 8.10365C8.32424 7.9092 8.32424 7.591 8.51869 7.39655L12.2628 3.65242L9.93644 3.65242C9.66067 3.65242 9.43793 3.42968 9.43793 3.15391C9.43793 2.87814 9.66067 2.6554 9.93644 2.6554L13.4684 2.65186Z" fill="black"/>
</svg>
