<?xml version="1.0" encoding="UTF-8" standalone="no"?>
<svg
   xmlns:dc="http://purl.org/dc/elements/1.1/"
   xmlns:cc="http://creativecommons.org/ns#"
   xmlns:rdf="http://www.w3.org/1999/02/22-rdf-syntax-ns#"
   xmlns:svg="http://www.w3.org/2000/svg"
   xmlns="http://www.w3.org/2000/svg"
   width="168.62778mm"
   height="181.32776mm"
   viewBox="0 0 168.62778 181.32776"
   version="1.1"
   id="svg8">
  <defs
     id="defs2" />
  <metadata
     id="metadata5">
    <rdf:RDF>
      <cc:Work
         rdf:about="">
        <dc:format>image/svg+xml</dc:format>
        <dc:type
           rdf:resource="http://purl.org/dc/dcmitype/StillImage" />
        <dc:title></dc:title>
      </cc:Work>
    </rdf:RDF>
  </metadata>
  <g
     id="layer3"
     style="display:inline"
     transform="translate(-9.9232002,-12.162494)">
    <path
       style="fill:#d8e9f6;stroke-width:0.176389"
       d="M 9.9232002,102.82638 V 12.162494 H 94.23709 178.55098 v 90.663886 90.66388 H 94.23709 9.9232002 Z"
       id="path1019" />
  </g>
  <g
     id="layer4"
     style="display:inline"
     transform="translate(-9.9232002,-12.162494)">
    <g
       id="g1015">
       <a xlink:href="./VA">
      <path
         style="fill:#0065cb;stroke:none;stroke-width:0.176389;stroke-opacity:1"
         d="m 152.53663,99.663258 c 0.0338,-0.792486 -0.0277,-0.855428 0.90207,-1.100917 0.46974,-0.124067 0.48137,-0.109962 0.38297,0.464277 -0.27553,1.607832 -1.2456,3.410082 -1.3209,2.621832 -0.0155,-0.53901 -0.002,-0.3748 0.005,-0.70715 z m -18.11828,6.628132 c 1.18078,-1.24401 1.78332,-1.5971 2.33527,-1.36847 0.47177,0.19541 0.65518,0.13461 2.37216,-0.78637 2.04765,-1.09834 1.8809,-0.87093 2.39599,-3.2677 0.35711,-1.661623 0.3329,-1.620178 0.8767,-1.50074 0.53752,0.118059 0.65212,0.03537 1.66628,-1.202279 0.39088,-0.477017 0.66254,-1.03348 0.7395,-1.514805 0.12166,-0.760807 0.12166,-0.760807 1.18895,-0.640057 0.86897,0.09831 2.05627,0.605832 2.05627,0.878971 0,0.0297 -0.11369,0.376228 -0.25264,0.770055 -0.19804,0.561307 -0.20607,0.754696 -0.0371,0.894884 0.30018,0.249132 1.64607,0.540618 2.52002,0.545774 0.73093,0.0043 0.73093,0.0043 0.85546,1.577707 0.11951,1.51009 0.1445,1.58167 0.62095,1.77902 0.48362,0.20032 1.04079,1.13118 0.81326,1.3587 -0.1335,0.1335 -13.9636,2.40974 -16.73991,2.75516 -1.90126,0.23655 -1.90126,0.23655 -1.41111,-0.27985 z"
         id="VA" />
         </a>
       <a xlink:href="./WA">
      <path
         style="fill:#0065cb;stroke-width:0.176389"
         d="m 46.36127,68.934362 c -1.763888,-0.692676 -1.763888,-0.692676 -4.7625,-0.673264 -2.137027,0.01383 -3.404062,-0.06286 -4.409722,-0.26694 -0.776111,-0.157494 -1.430955,-0.286365 -1.455208,-0.286383 -0.02425,-1.6e-5 -0.04497,-0.416749 -0.04604,-0.926072 -0.0019,-0.926041 -0.0019,-0.926041 -1.034868,-1.565257 -1.032926,-0.639217 -1.032926,-0.639217 -0.79829,-1.852083 0.129048,-0.667078 0.245401,-1.927243 0.258561,-2.800368 0.01316,-0.873125 0.07561,-2.008741 0.138776,-2.523592 l 0.114847,-0.936094 1.89618,1.347135 c 1.784806,1.268007 1.896181,1.382927 1.896181,1.956535 0,0.335169 -0.125645,0.801159 -0.279211,1.03553 -0.269784,0.411741 -0.211346,1.148958 0.09108,1.148958 0.35385,0 0.879944,-2.116666 0.997385,-4.012847 0.0676,-1.091406 0.158734,-1.984375 0.202525,-1.984375 0.04379,0 1.28265,0.352191 2.753019,0.782645 1.470371,0.430454 3.903714,1.109437 5.407429,1.50885 1.503716,0.399413 2.863101,0.763825 3.020856,0.809807 0.385341,0.112313 -1.553949,9.840391 -1.972857,9.89646 -0.139838,0.01872 -1.047999,-0.277675 -2.018138,-0.658645 z"
         id="WA" />
         </a>
       <a xlink:href="./HI">
      <path
         style="fill:#0065cb;stroke-width:0.176389"
         id="HI"
         d="m 77.262585,149.88477 c -0.272186,-0.15832 -0.301814,-0.32758 -0.199995,-1.1425 0.08577,-0.68648 0.05309,-1.03669 -0.115733,-1.24011 -0.201111,-0.24232 -0.17633,-0.33118 0.170748,-0.61223 0.330812,-0.26787 0.383503,-0.4312 0.284514,-0.8819 -0.12149,-0.55314 -0.12149,-0.55314 0.972483,0.0299 0.601685,0.3207 1.158372,0.75247 1.237082,0.95949 0.07871,0.20702 0.361324,0.51939 0.628029,0.69414 0.484922,0.31773 0.484922,0.31773 0.06018,0.64922 -0.233606,0.18232 -0.770209,0.42187 -1.19245,0.53233 -0.600301,0.15705 -0.806002,0.31068 -0.943298,0.70452 -0.187022,0.53649 -0.388947,0.60528 -0.901564,0.3071 z m -2.282217,-6.16673 c -0.856264,-0.87089 -0.681904,-1.04537 0.480351,-0.4807 0.907343,0.44082 0.958167,0.54129 0.401593,0.79391 -0.332194,0.15078 -0.475927,0.0997 -0.881944,-0.31321 z m -1.433417,0.0947 c -0.170212,-0.44357 -0.119999,-0.55802 0.08793,-0.20044 0.102956,0.17705 0.150036,0.35907 0.104621,0.40448 -0.04541,0.0454 -0.132065,-0.0464 -0.192556,-0.20404 z m -9.811375,-4.57929 c 0,-0.17639 0.176389,-0.26459 0.529167,-0.26459 0.352778,0 0.529167,0.0882 0.529167,0.26459 0,0.17639 -0.176389,0.26458 -0.529167,0.26458 -0.352778,0 -0.529167,-0.0882 -0.529167,-0.26458 z m 5.688542,2.26443 c -0.340815,-0.13752 -0.260377,-0.58874 0.104953,-0.58874 0.178993,0 0.469106,0.15875 0.6447,0.35278 0.310935,0.34358 0.308199,0.35241 -0.104953,0.33885 -0.233319,-0.008 -0.523433,-0.054 -0.6447,-0.10289 z m 2.954514,1.07507 c 0,-0.20509 0.102462,-0.24512 0.396875,-0.15505 0.839565,0.25685 0.941273,0.42067 0.264583,0.42615 -0.485291,0.004 -0.661458,-0.0683 -0.661458,-0.2711 z" />
      </a>
       <a xlink:href="./ND">
      <path
         style="fill:#0065cb;stroke-width:0.176389"
         d="m 87.81266,75.047043 -7.761111,-0.371937 0.0572,-1.146528 c 0.157775,-3.162235 0.543823,-8.332741 0.628472,-8.417388 0.05282,-0.05282 1.309208,-0.0023 2.791982,0.112183 1.482775,0.114517 4.728919,0.256206 7.213657,0.314865 l 4.517702,0.106651 0.09712,1.627789 c 0.05685,0.952902 0.211997,1.849942 0.374204,2.163616 0.152728,0.295348 0.397129,1.618532 0.544557,2.948242 0.355997,3.210905 0.364645,3.089315 -0.217602,3.059382 -0.266789,-0.01372 -3.97757,-0.19231 -8.246181,-0.396875 z"
         id="ND" />
      </a>
      <a xlink:href="./ME">
      <path
         style="fill:#0065cb;stroke-width:0.176389"
         d="m 161.46996,73.050379 c -1.29658,-3.380837 -1.29658,-3.380837 -1.00931,-4.098775 0.16369,-0.409123 0.32961,-1.494927 0.38572,-2.524301 0.12263,-2.249719 0.68291,-4.472538 1.15871,-4.596963 0.24246,-0.0634 0.36242,0.02862 0.43994,0.337476 0.13071,0.52078 0.26949,0.531781 0.70048,0.05554 0.57103,-0.630975 0.88573,-0.716737 1.51967,-0.414132 0.53485,0.255307 0.64749,0.467092 1.38459,2.603153 0.66634,1.931024 0.88032,2.362888 1.26213,2.547345 0.25287,0.122161 0.54251,0.459505 0.64366,0.749652 0.12559,0.360268 0.30152,0.527541 0.55485,0.527541 0.26162,0 0.45203,0.19404 0.64603,0.658355 0.27508,0.658356 0.27508,0.658356 -0.75865,1.581648 -0.64238,0.573752 -1.1427,0.890123 -1.32157,0.835677 -0.32603,-0.09924 -1.65433,1.368125 -1.76597,1.950847 -0.0371,0.193721 -0.55674,0.709658 -1.15472,1.146528 -0.83141,0.607402 -1.12275,0.938657 -1.23811,1.407777 -0.14388,0.585054 -0.21093,0.456854 -1.44745,-2.767365 z"
         id="ME" />
      </a>
      <a xlink:href="./MT">
      <path
         style="fill:#0065cb;stroke-width:0.176389"
         d="m 69.997382,77.03884 c -4.268611,-0.472284 -7.86033,-0.822792 -7.981597,-0.778905 -0.121268,0.04389 -0.221702,0.22119 -0.223187,0.394011 -0.0058,0.670394 -0.195487,0.729816 -1.573809,0.492929 -0.914317,-0.15714 -1.464998,-0.172113 -1.816991,-0.04941 -0.623451,0.217337 -0.517334,0.390276 -1.107568,-1.805 -0.273878,-1.018646 -0.689328,-2.158399 -0.923223,-2.532784 -0.425262,-0.680702 -0.425262,-0.680702 -0.940068,-0.187485 -0.632274,0.605756 -0.632602,0.552536 -0.0089,-1.445227 0.501983,-1.607859 0.501983,-1.607859 -0.4962,-3.263194 -1.676878,-2.780852 -1.863866,-3.399054 -1.654191,-5.468941 0.09721,-0.959658 0.216817,-1.784902 0.265792,-1.833875 0.04897,-0.04897 1.113428,0.14329 2.365458,0.42725 6.038213,1.369469 13.737808,2.707828 19.915304,3.461721 2.134305,0.260468 3.886999,0.484876 3.894876,0.498682 0.0079,0.01381 -0.166433,2.684166 -0.387353,5.934131 -0.220922,3.249965 -0.405959,6.166996 -0.411196,6.482291 -0.01192,0.717418 0.775628,0.746226 -8.917161,-0.326196 z"
         id="MT" />
      </a>
      <a xlink:href="./NH">
      <path
         style="fill:#0065cb;stroke-width:0.176389"
         d="m 159.16197,77.126745 c 0,-1.885553 0.0669,-2.535678 0.33287,-3.235709 0.3067,-0.807184 0.31332,-0.969303 0.0842,-2.062432 -0.42837,-2.043577 -0.18832,-1.61798 1.31705,2.335052 1.46084,3.836112 1.46084,3.836112 0.9658,4.311944 -0.31258,0.300445 -0.90138,0.574423 -1.59747,0.743319 l -1.10243,0.267488 z"
         id="NH" />
      </a>
      <a xlink:href="./VT">
      <path
         style="fill:#0065cb;stroke-width:0.176389"
         d="m 157.05207,78.874689 c -0.1094,-0.56352 -0.39404,-1.500833 -0.63252,-2.082917 -0.23848,-0.582083 -0.43337,-1.349408 -0.43309,-1.705167 2.8e-4,-0.35576 -0.15824,-1.017183 -0.35227,-1.469833 -0.19403,-0.452649 -0.35278,-0.847409 -0.35278,-0.877245 0,-0.02983 0.64733,-0.228916 1.43852,-0.442399 0.79118,-0.213485 1.5404,-0.427253 1.66493,-0.47504 0.38958,-0.149493 0.50517,1.091138 0.1808,1.940482 -0.20333,0.532421 -0.2907,1.381577 -0.30322,2.946905 -0.0205,2.570003 -0.12009,3.060382 -0.63645,3.135353 -0.32764,0.04757 -0.40012,-0.07495 -0.57392,-0.970139 z"
         id="VT" />
      </a>
      <a xlink:href="./MA">
      <path
         style="fill:#0065cb;stroke-width:0.176389"
         d="m 163.01379,82.059349 c -0.82132,-0.821321 -0.82132,-0.821321 -3.0375,-0.266324 -2.76662,0.692845 -2.60943,0.704326 -2.54426,-0.185829 0.0542,-0.740828 0.0542,-0.740828 2.19917,-1.27882 1.21149,-0.303866 2.30374,-0.682774 2.50986,-0.870683 0.34546,-0.314927 0.37133,-0.316034 0.48465,-0.02073 0.0658,0.171577 0.0317,0.45294 -0.0759,0.625251 -0.16498,0.264169 -0.0572,0.442771 0.68712,1.139031 0.75847,0.709461 0.86275,0.885848 0.7405,1.252583 -0.1411,0.423291 -0.14911,0.42001 -0.9636,-0.394478 z"
         id="MA" />
      </a>
      <a xlink:href="./OR">
      <path
         style="fill:#0065cb;stroke-width:0.176389"
         d="m 41.863354,82.982756 c -1.794757,-0.412191 -5.465851,-1.457463 -8.157987,-2.322827 l -4.894791,-1.573385 v -1.490176 c 0,-1.490177 0,-1.490177 1.313786,-3.705025 1.107697,-1.867411 1.468831,-2.692897 2.30217,-5.262333 0.690776,-2.129873 1.052029,-3.010784 1.199755,-2.925593 1.091165,0.62925 1.181511,0.767226 1.181511,1.804405 0,1.010779 0,1.010779 2.337153,1.403393 1.708833,0.287064 3.04858,0.391459 4.983439,0.388321 2.646289,-0.0043 2.646289,-0.0043 4.492715,0.699455 1.096143,0.417782 2.042443,0.901587 2.32881,1.190625 0.482381,0.486879 0.482381,0.486879 -0.91639,2.338962 -1.593963,2.110534 -1.563243,2.023175 -0.94017,2.673523 0.467499,0.487966 0.467499,0.487966 -0.377977,3.449235 -0.46501,1.628697 -0.917241,3.219238 -1.004958,3.534533 -0.192558,0.692159 0.123845,0.708865 -3.847066,-0.203113 z"
         id="OR" />
      </a>
      <a xlink:href="./RI">
      <path
         style="fill:#0065cb;stroke-width:0.176389"
         d="m 162.07225,83.290646 c -0.37363,-0.89423 -0.27668,-1.012539 0.39701,-0.484466 0.66453,0.520899 0.70529,0.69349 0.22454,0.950784 -0.30485,0.16315 -0.38305,0.104484 -0.62155,-0.466318 z"
         id="RI" />
      </a>
      <a xlink:href="./MN">
      <path
         style="fill:#0065cb;stroke-width:0.176389"
         d="m 97.602243,80.945432 c 0,-2.793211 -0.02325,-3.007162 -0.345516,-3.179633 -0.342794,-0.183459 -0.342808,-0.19123 -0.0016,-0.987159 0.341702,-0.797159 0.341574,-0.822505 -0.02032,-4.000433 -0.200309,-1.759004 -0.477386,-3.417072 -0.615726,-3.684594 -0.159347,-0.308139 -0.251531,-1.030647 -0.251531,-1.971391 0,-1.693995 0.01115,-1.701526 2.522543,-1.70559 1.199617,-0.0019 1.199617,-0.0019 1.457577,-0.619304 0.14187,-0.339548 0.31641,-0.616145 0.38787,-0.61466 0.36345,0.0075 0.55942,0.355132 0.66993,1.188256 0.12201,0.91975 0.12201,0.91975 1.34255,1.31285 0.99501,0.320463 1.28378,0.353607 1.56278,0.17937 0.62703,-0.391585 1.35963,-0.254131 2.07103,0.388579 0.53472,0.483087 0.73002,0.566872 0.98662,0.423272 0.25205,-0.141058 0.42149,-0.08174 0.79868,0.279633 0.54127,0.518569 1.00413,0.578141 1.54555,0.198919 0.32817,-0.229858 0.56783,-0.22439 2.08232,0.04751 1.71147,0.307263 1.71147,0.307263 0.97663,0.720263 -0.40416,0.22715 -1.42512,1.019364 -2.26881,1.760478 -0.84369,0.741112 -1.93899,1.535258 -2.43399,1.76477 -0.9,0.417294 -0.9,0.417294 -1.02091,1.644297 -0.10404,1.055887 -0.20305,1.317927 -0.70994,1.878999 -0.56706,0.627667 -0.57995,0.67362 -0.34534,1.231602 0.18778,0.44659 0.19695,0.65448 0.04,0.905875 -0.26329,0.421596 0.11373,2.224325 0.53754,2.570287 0.16091,0.131347 0.95191,0.766156 1.75779,1.410688 2.27456,1.819164 2.45265,1.750556 -4.6867,1.805427 l -6.038994,0.04641 z"
         id="MN" />
      </a>
      <a xlink:href="./CT">
      <path
         style="fill:#0065cb;stroke-width:0.176389"
         d="m 157.78378,85.737925 c -0.0999,-0.263717 -0.2298,-0.89254 -0.28867,-1.397384 -0.12064,-1.034685 -0.38954,-0.85238 2.25221,-1.526902 1.02633,-0.262054 1.02633,-0.262054 1.37254,0.545626 0.44844,1.046166 0.43362,1.07218 -0.89575,1.571932 -0.62076,0.23336 -1.38291,0.618225 -1.69367,0.855255 -0.56502,0.430962 -0.56502,0.430962 -0.74666,-0.04853 z"
         id="CT" />
      </a>
      <a xlink:href="./ID">
      <path
         style="fill:#0065cb;stroke-width:0.176389"
         d="m 56.150854,85.972865 c -2.769773,-0.455807 -9.452138,-1.807612 -9.662647,-1.954701 -0.0272,-0.01901 0.438898,-1.75635 1.03577,-3.860767 1.08522,-3.826213 1.08522,-3.826213 0.710909,-4.224649 -0.502887,-0.535298 -0.539181,-0.44153 0.882133,-2.27908 1.565197,-2.023571 1.529616,-1.911562 0.868549,-2.734171 -0.551758,-0.686588 -0.551758,-0.686588 0.43191,-5.521046 1.214254,-5.967738 1.0528,-5.446606 1.638827,-5.289689 0.533564,0.14287 0.525799,0.0355 0.201159,2.781404 -0.170746,1.444225 -0.170746,1.444225 0.509768,2.910417 0.374283,0.806404 1.012879,2.006603 1.419105,2.667107 0.738591,1.200919 0.738591,1.200919 0.198956,2.949642 -0.539637,1.748723 -0.539637,1.748723 -0.177202,2.45915 0.424861,0.832799 0.511025,0.854685 1.060818,0.269457 0.227851,-0.242535 0.468177,-0.440972 0.534058,-0.440972 0.06588,0 0.378564,0.982248 0.694846,2.182772 0.730382,2.772344 0.636915,2.643787 1.666966,2.292814 0.755539,-0.257438 2.891431,-0.158193 3.198231,0.148607 0.03097,0.03097 -0.174962,1.840858 -0.457636,4.021965 -0.282674,2.181105 -0.515579,4.025178 -0.517569,4.097939 -0.0054,0.196178 -0.465187,0.144497 -4.236951,-0.476199 z"
         id="ID" />
      </a>
      <a xlink:href="./SD">
      <path
         style="fill:#0065cb;stroke-width:0.176389"
         d="M 93.352978,86.569467 C 92.719688,85.8758 92.719688,85.8758 91.236312,85.862311 88.730873,85.839531 79.461669,85.43372 79.385395,85.34347 c -0.09326,-0.110338 0.538612,-9.541285 0.646488,-9.649163 0.0818,-0.0818 16.187741,0.62619 16.277063,0.715509 0.02591,0.02591 -0.04313,0.341154 -0.153421,0.700531 -0.180208,0.58717 -0.160271,0.696275 0.196652,1.076205 0.391134,0.416341 0.395529,0.472157 0.288114,3.659145 -0.06,1.779993 -0.109515,3.699987 -0.110048,4.266653 -8.82e-4,0.903456 -0.03807,1.014671 -0.30233,0.903358 -0.660473,-0.278206 -1.089921,-0.281605 -1.475294,-0.01168 -0.559506,0.391892 -0.678984,0.354797 -1.399641,-0.434563 z"
         id="SD" />
      </a>
      <a xlink:href="./WI">
      <path
         style="fill:#0065cb;stroke-width:0.176389"
         d="m 111.86711,87.232634 c -0.26706,-0.324372 -0.55158,-0.987312 -0.67114,-1.563767 -0.11416,-0.550374 -0.32016,-1.09414 -0.4578,-1.208366 -0.21545,-0.178805 -0.21218,-0.281308 0.0235,-0.73711 0.33539,-0.648573 0.27777,-0.720047 -2.03289,-2.521897 -1.76944,-1.379803 -2.18674,-2.088486 -1.68274,-2.857686 0.2302,-0.351332 0.23175,-0.478605 0.0123,-1.003877 -0.2419,-0.578938 -0.23251,-0.619573 0.24985,-1.081701 0.411,-0.393762 0.52327,-0.686444 0.62394,-1.626491 0.12276,-1.146323 0.12276,-1.146323 1.37612,-1.726869 1.35685,-0.628482 1.60893,-0.624019 1.44589,0.02559 -0.0831,0.331186 -0.0356,0.42173 0.22134,0.42173 0.17995,0 0.67756,0.267653 1.10579,0.594782 0.79418,0.606682 2.82762,1.392922 4.57096,1.767379 0.97014,0.208379 0.97014,0.208379 1.02326,1.122386 0.0453,0.77975 0.12925,0.968212 0.5714,1.283051 0.51828,0.369046 0.51828,0.369046 0.15687,1.077461 -0.19877,0.389627 -0.33684,0.875855 -0.30681,1.080503 0.0423,0.288564 0.26581,0.05785 0.99552,-1.027777 1.10543,-1.644615 1.10542,-1.644742 0.17791,2.353324 -0.50555,2.17914 -0.53132,2.449112 -0.37051,3.880555 0.0951,0.84616 0.12433,1.586526 0.065,1.645255 -0.0593,0.05873 -1.37781,0.201888 -2.93003,0.318128 -1.55222,0.116242 -3.02066,0.242205 -3.26319,0.279917 -0.32895,0.05115 -0.55876,-0.07449 -0.90458,-0.494519 z"
         id="WI" />
      </a>
      <a xlink:href="./MI">
      <path
         style="fill:#0065cb;stroke-width:0.176389"
         d="m 122.93484,88.039195 c -0.0557,-0.462264 -0.15319,-1.316729 -0.21671,-1.898812 -0.0635,-0.582083 -0.34106,-1.673451 -0.61677,-2.425262 -0.50129,-1.36693 -0.50129,-1.36693 -0.12002,-3.202146 0.35999,-1.732806 0.41223,-1.849981 0.93615,-2.099818 0.45491,-0.216932 0.63525,-0.4901 1.00101,-1.516259 0.24537,-0.688408 0.42257,-1.251653 0.39378,-1.251653 -0.0288,0 -0.25627,0.07753 -0.5055,0.172289 -0.30581,0.116269 -0.59042,0.109746 -0.87532,-0.02006 -0.69288,-0.315698 -3.18595,0.604522 -3.46537,1.279107 -0.39575,0.955419 -0.87357,0.455212 -0.87357,-0.914496 0,-1.000107 0,-1.000107 -1.10243,-1.208586 -2.25567,-0.426567 -5.09755,-1.538303 -4.69944,-1.838412 0.0381,-0.0287 0.62486,-0.397672 1.30395,-0.819926 0.6791,-0.422255 1.69525,-1.150914 2.25812,-1.619242 1.65451,-1.376617 2.00069,-1.173242 0.6523,0.383217 -1.12814,1.302231 -1.16982,1.839014 -0.0877,1.130007 0.41104,-0.269323 0.46068,-0.255468 1.18442,0.330598 0.93106,0.753941 2.21698,1.013321 2.87764,0.58044 0.60263,-0.394857 0.87985,-0.348088 1.49374,0.25201 0.41975,0.410327 0.70048,0.529167 1.24998,0.529167 0.6288,0 0.72943,0.05962 0.89311,0.529166 0.15327,0.439655 0.28019,0.529167 0.75031,0.529167 0.32586,0 0.81813,0.186133 1.1607,0.438875 0.32717,0.241381 0.85603,0.487872 1.17524,0.547756 0.62937,0.11807 1.41589,1.081749 1.12241,1.375223 -0.0945,0.09449 -0.0245,0.42282 0.1724,0.808757 0.40536,0.794567 0.26916,1.618245 -0.41613,2.516712 -0.29924,0.392322 -0.46358,0.829677 -0.46358,1.233718 0,1.014603 0.42257,0.966123 1.26125,-0.144699 0.96917,-1.283654 1.31746,-1.248665 1.90147,0.191019 0.69898,1.723118 0.71477,3.281507 0.0427,4.217289 -0.29698,0.413543 -0.63489,1.128873 -0.75091,1.589618 -0.11601,0.460747 -0.29903,0.864036 -0.4067,0.896197 -0.10767,0.03216 -1.75581,0.105958 -3.66253,0.163996 -3.46677,0.105522 -3.46677,0.105522 -3.568,-0.734955 z"
         id="MI" />
      </a>
      <a xlink:href="./NY">
      <path
         style="fill:#0065cb;stroke:none;stroke-width:0.176389;stroke-opacity:1"
         d="m 155.38807,86.218765 c -0.90484,-0.34927 -1.24728,-0.50601 -1.62539,-0.25826 -0.54239,0.355387 -0.49613,0.377785 -1.05977,-0.513129 -0.9546,-1.508899 -3.42354,-1.567928 -9.01613,-0.215556 -3.9042,0.944093 -3.77491,0.928968 -4.05853,0.474826 -0.1879,-0.300884 -0.12499,-0.450456 0.48674,-1.157255 0.81888,-0.946145 0.77678,-0.773942 0.41206,-1.685463 -0.42588,-1.064382 0.18928,-1.558733 1.95104,-1.567896 1.11966,-0.0058 1.34006,-0.07397 2.68993,-0.831653 0.80868,-0.453921 1.46839,-0.910327 1.46602,-1.014236 -0.002,-0.10391 -0.0835,-0.532437 -0.18035,-0.952283 -0.16407,-0.711417 -0.13977,-0.809159 0.35709,-1.436495 0.29322,-0.370224 0.53313,-0.823175 0.53313,-1.006556 0,-0.183383 0.42272,-0.750886 0.93937,-1.26112 0.93017,-0.918621 0.95218,-0.928663 2.24896,-1.026143 0.72027,-0.05414 1.85297,-0.254749 2.51711,-0.445789 0.66414,-0.191042 1.22985,-0.321878 1.25714,-0.290749 0.32799,0.374147 0.79853,1.693981 0.79853,2.239809 0,0.383877 0.16556,1.081571 0.3679,1.550428 0.67204,1.557219 1.03529,3.683961 1.0394,6.085417 0.003,1.823033 -0.74371,2.696004 -0.5911,3.443589 0.13069,0.61267 1.36703,0.954764 2.3589,0.338306 1.15864,-0.72011 1.81575,-1.161862 2.02369,-0.865664 0.38664,0.415391 -3.36217,2.394516 -3.873,2.319705 -0.22999,-0.05275 -0.50959,-1.792347 -1.04274,-1.923833 z"
         id="NY" />
      </a>
      <a xlink:href="./WY">
      <path
         style="fill:#0065cb;stroke-width:0.176389"
         d="m 71.019432,91.781836 c -2.930372,-0.321554 -6.400308,-0.750082 -7.710969,-0.952285 -1.310661,-0.202202 -2.408481,-0.36764 -2.4396,-0.36764 -0.08901,0 1.602416,-13.082 1.704639,-13.184223 0.05026,-0.05026 3.705725,0.292928 8.123257,0.762641 l 8.031873,0.854022 -0.013,0.977182 c -0.0071,0.537451 -0.185739,3.556871 -0.396875,6.709822 -0.451748,6.746088 0.514221,6.057874 -7.299332,5.200481 z"
         id="WY" />
      </a>
      <a xlink:href="./NJ">
      <path
         style="fill:#0065cb;stroke-width:0.176389"
         d="m 153.71218,89.373407 c -0.83839,-0.900903 -0.7503,-0.69441 -0.80429,-1.635598 0.1793,-1.308111 0.41008,-1.425916 1.69858,-0.867111 0.7901,0.416699 0.4498,0.78619 0.58893,1.344261 -0.0857,0.245469 0.7155,0.70184 0.72507,1.127087 0.01,0.436994 0.16451,0.981299 0.12041,1.643315 0.0741,1.214034 -1.0458,2.649128 -1.43185,2.601409 -0.252,0.09091 -1.0761,0.20952 -1.50345,-0.279118 0,0 -0.73314,-0.594053 -0.67409,-0.983996 0.0417,-0.275027 0.50034,-0.667855 0.50034,-0.667855 0.51847,-0.692044 1.09901,-1.198997 1.19761,-1.472755 -0.14272,-0.549544 -0.27837,-0.558981 -0.41726,-0.809639 z"
         id="NJ" />
      </a>
      <a xlink:href="./PA">
      <path
         style="fill:#0065cb;stroke-width:0.176389"
         d="m 139.3406,94.210174 c -0.31794,-1.095569 -0.49417,-1.998286 -0.8111,-4.154951 -0.42392,-2.884764 -0.42855,-3.102592 -0.0756,-3.562062 0.26675,-0.347264 0.27751,-0.344687 0.68845,0.164862 0.41746,0.517641 0.41746,0.517641 4.70639,-0.490176 5.22831,-1.228552 6.33063,-1.296174 7.39445,-0.453614 0.68684,0.543988 0.68684,0.543988 0.68684,2.031832 0,1.471868 0.004,1.486733 0.41279,1.38424 0.31336,-0.07865 0.48332,0.004 0.70556,0.343212 0.38552,0.588382 0.449,0.468611 -0.85535,1.613775 -1.14812,1.00799 -1.25432,0.705347 -6.92684,1.917134 -6.49649,1.387803 -5.81012,1.603581 -5.92558,1.205748 z"
         id="PA" />
      </a>
      <a xlink:href="./IA">
      <path
         style="fill:#0065cb;stroke-width:0.176389"
         d="m 99.991325,94.673656 c -2.132565,-5.986253 -2.802017,-8.403638 -2.608128,-9.417904 0.08378,-0.438286 0.08378,-0.438286 6.209493,-0.438286 6.97221,0 6.57723,-0.08873 6.79289,1.525951 0.0859,0.642948 0.25187,1.029725 0.56778,1.322917 0.24553,0.22788 0.80451,0.877346 1.24218,1.443258 0.96501,1.247757 0.89513,1.881485 -0.20746,1.881485 -1.01563,0 -1.82618,1.418973 -1.24727,2.183509 0.39734,0.524763 -0.41932,2.010271 -0.86187,1.567725 -0.14432,-0.144321 -5.87118,-0.09726 -8.26075,0.06789 -1.22087,0.08438 -1.55825,0.05606 -1.626865,-0.136542 z"
         id="IA" />
      </a>
      <a xlink:href="./DE">
      <path
         style="fill:#0065cb;stroke-width:0.220307"
         d="m 152.57964,94.880331 c -0.76596,-2.066455 -0.59714,-2.123166 0.62845,-0.211111 1.1715,1.827657 1.15962,1.783459 0.47961,1.783459 -0.44995,0 -0.6088,-0.225394 -1.10806,-1.572348 z"
         id="DE" />
      </a>
      <a xlink:href="./NE">
      <path
         style="fill:#0065cb;stroke-width:0.176389"
         d="m 88.378036,96.679714 -5.079071,-0.04963 0.121299,-1.76117 c 0.06671,-0.968644 0.09011,-1.761861 0.05199,-1.762704 -0.496269,-0.01097 -4.46163,-0.539628 -4.525307,-0.603305 -0.105524,-0.105524 0.271122,-5.940615 0.39121,-6.060702 0.09737,-0.09737 10.994423,0.270397 12.391229,0.41819 0.87609,0.0927 0.942936,0.137484 1.460442,0.978538 0.542327,0.881396 0.542327,0.881396 1.198554,0.489236 0.360925,-0.215687 0.727338,-0.454537 0.814251,-0.530775 0.288544,-0.253104 1.53122,0.537162 1.779269,1.131506 0.231577,0.554875 2.403228,6.714458 2.639349,7.486136 0.121437,0.396875 0.121437,0.396875 -3.021353,0.355592 -1.728535,-0.02271 -5.428372,-0.06362 -8.221858,-0.09091 z"
         id="NE" />
      </a>
      <a xlink:href="./OH">
      <path
         style="fill:#0065cb;stroke-width:0.176389"
         d="m 131.06687,99.764974 c -0.4589,-0.115877 -0.74759,-0.324912 -0.92648,-0.670842 -0.18354,-0.354937 -0.4416,-0.536608 -0.87873,-0.618613 -0.34038,-0.06386 -0.6625,-0.186692 -0.71582,-0.272971 -0.0818,-0.132412 -0.95713,-7.79282 -0.9574,-8.378975 -1.7e-4,-0.39187 3.70336,-0.432562 4.37562,-0.04807 0.73791,0.422033 0.96052,0.418893 1.35693,-0.01914 0.1756,-0.194028 0.49305,-0.352778 0.70545,-0.352778 0.21241,0 0.83276,-0.390782 1.37857,-0.868404 0.88229,-0.772074 1.64238,-1.216733 1.78439,-1.043882 0.0272,0.03311 0.21191,1.171453 0.41045,2.529647 0.34556,2.363885 0.34853,2.535069 0.0695,4.004619 -0.29145,1.535176 -0.29145,1.535176 -1.64042,2.77622 -1.16423,1.071095 -1.37766,1.360697 -1.55857,2.114806 -0.20961,0.873759 -0.20961,0.873759 -0.81162,0.586683 -0.56976,-0.271699 -0.63745,-0.267871 -1.26365,0.07148 -0.54501,0.295354 -0.77914,0.328886 -1.32826,0.190228 z"
         id="OH" />
      </a>
      <a xlink:href="./MD">
      <path
         style="fill:#0065cb;stroke-width:0.176389"
         d="m 150.07382,95.674264 c 0.13933,0.745379 0.36692,1.531034 0.50575,1.745902 0.39532,0.611802 0.24821,0.681666 -0.95373,0.45295 -0.42515,-0.0809 -0.46584,-0.281535 -0.46059,-0.84811 0.003,-0.298794 0.0689,-0.494505 -0.34662,-0.801695 -0.54805,-0.405189 -1.13367,-0.327034 -1.05236,-0.920246 0.0826,-0.629726 -0.0898,-1.353969 -0.57543,-1.300442 -1.29666,-0.175201 -3.9902,0.743497 -4.10168,0.294979 -0.12597,-0.506798 1.13627,-0.61671 1.17136,-0.637893 2.13858,-0.340616 4.20694,-0.696372 6.31325,-1.01692 0.10873,-0.01674 0.59035,-0.127865 0.7237,-0.01153 0.17122,0.204189 0.57974,1.957137 0.868,2.807759 0.52052,1.536063 0.44824,1.603884 1.37768,1.358395 0.46974,-0.124067 0.48138,-0.109961 0.38297,0.464277 -0.0499,0.505484 -0.10557,0.82471 -0.25732,0.99862 -0.1326,0.15197 -0.63513,0.08962 -0.63513,0.08962 -0.30316,0.007 -0.9033,-0.465191 -1.16868,-0.69412 h 3.5e-4 c -0.7802,-0.549936 -0.83818,-0.658419 -0.90138,-2.003029 -0.11266,-0.632024 0.0824,-1.525339 -0.16674,-1.592103 -0.0882,-0.05183 -0.26046,-0.07884 -0.38134,0.0179 -0.0225,0.04918 -0.59535,0.240444 -0.34203,1.595675 z"
         id="MD" />
      </a>
      <a xlink:href="./WV">
      <path
         style="fill:#0065cb;stroke-width:0.176389"
         d="m 136.80333,103.92659 c -0.58443,-0.23558 -1.80664,-2.15411 -1.80664,-2.83593 0,-1.489881 0.42721,-2.33638 1.93475,-3.833639 1.01285,-1.005937 1.41824,-1.533845 1.42225,-1.852084 0.009,-0.548131 0.18871,-0.59663 0.99586,-0.593106 0.44662,0.0023 1.69081,0.03081 1.8402,0.0533 1.47924,0.147196 3.27681,-0.270134 5.47116,-0.228084 0.37005,0.156087 0.36279,0.309104 0.0618,0.581441 -0.30835,0.279048 -0.632,0.214652 -1.64767,0.237865 -0.1807,0.0041 -1.03479,-0.0077 -1.17779,0.945867 -0.13673,0.911761 -0.20171,0.756502 -0.8509,1.532703 -0.4022,0.480894 -0.45482,0.495167 -1.07315,0.2911 -0.35761,-0.118024 -0.68114,-0.183658 -0.71894,-0.145853 -0.0378,0.0378 -0.28398,1.041031 -0.54706,2.22939 -0.47832,2.16067 -0.47832,2.16067 -1.92171,2.94746 -1.45188,0.79143 -1.5759,0.83331 -1.98222,0.66953 z"
         id="WV" />
      </a>
      <a xlink:href="./IN">
      <path
         style="fill:#0065cb;stroke-width:0.176389"
         d="m 120.35641,103.71866 c 0,-0.20252 0.28907,-0.89411 0.64237,-1.53687 0.63579,-1.15667 0.63941,-1.17489 0.35278,-1.77595 -0.37889,-0.794538 -0.44116,-10.179703 -0.0691,-10.415808 0.12127,-0.07696 1.39127,-0.169669 2.82222,-0.206024 2.52691,-0.0642 2.60174,-0.0557 2.60174,0.295546 0,0.198907 0.19841,2.211776 0.4409,4.473044 0.56767,5.293408 0.56921,5.178732 -0.0729,5.402589 -0.39915,0.139143 -0.68487,0.507543 -1.27882,1.648853 -0.76483,1.46968 -0.76483,1.46968 -1.91136,1.87975 -1.10235,0.39427 -1.16824,0.39849 -1.71014,0.10971 -0.58163,-0.30996 -0.74531,-0.28637 -1.42076,0.20479 -0.377,0.27414 -0.39688,0.27015 -0.39688,-0.0796 z"
         id="IN" />
      </a>
      <a xlink:href="./UT">
      <path
         style="fill:#0065cb;stroke-width:0.176389"
         d="m 56.606332,104.42529 c -3.711756,-0.61967 -6.009472,-1.07928 -6.053203,-1.21084 -0.06678,-0.20089 2.934124,-16.462333 3.066918,-16.619153 0.03458,-0.04084 1.535642,0.153164 3.335687,0.431117 l 3.272809,0.50537 -0.137084,1.156383 c -0.318368,2.685634 -0.450596,2.508564 2.183383,2.923812 1.282394,0.202171 2.388658,0.424613 2.458362,0.494319 0.24457,0.24457 -1.603709,13.255602 -1.887663,13.288272 -0.141071,0.0162 -2.948714,-0.41994 -6.239209,-0.96928 z"
         id="UT" />
      </a>
      <a xlink:href="./IL">
      <path
         style="fill:#0065cb;stroke-width:0.176389"
         d="m 116.65016,106.12988 c -0.15485,-0.59288 -0.45792,-1.00009 -1.35861,-1.82544 -1.15928,-1.06233 -1.15928,-1.06233 -0.86943,-1.62284 0.15941,-0.30828 0.28985,-0.6888 0.28985,-0.84562 0,-0.43131 -0.90209,-1.52631 -1.17206,-1.42271 -0.14868,0.0571 -0.27467,-0.0861 -0.34185,-0.38849 -0.0585,-0.263362 -0.13876,-0.601113 -0.17834,-0.750557 -0.0396,-0.149443 -0.46869,-0.503421 -0.95359,-0.786618 -0.93622,-0.546783 -0.96588,-0.595955 -1.14203,-1.892977 -0.10114,-0.744783 -0.0458,-0.949948 0.51434,-1.90563 0.70782,-1.207698 0.73592,-1.345696 0.35886,-1.762342 -0.43417,-0.479753 -0.14559,-0.877245 0.6369,-0.877245 0.61243,0 0.71762,-0.06843 1.01683,-0.661459 0.60768,-1.204446 0.62028,-1.415342 0.12008,-2.009798 -0.25363,-0.301422 -0.41413,-0.59506 -0.35666,-0.652526 0.11777,-0.117771 4.15764,-0.52687 5.38167,-0.544978 0.79736,-0.0118 0.79736,-0.0118 1.19239,1.267025 0.36661,1.1868 0.39491,1.610093 0.39327,5.882706 -0.001,2.869662 0.0706,4.811439 0.19032,5.154869 0.16868,0.48389 0.12571,0.67351 -0.35278,1.55695 -0.39947,0.73754 -0.54485,1.23834 -0.54485,1.87682 0,1.24924 -0.77192,2.65644 -1.39215,2.53787 -0.24153,-0.0462 -0.61773,0.0331 -0.836,0.17608 -0.38449,0.25193 -0.40305,0.23626 -0.59616,-0.50309 z"
         id="IL" />
      </a>
      <a xlink:href="./CO">
      <path
         style="fill:#0065cb;stroke-width:0.176389"
         d="m 71.596395,106.4895 c -4.068251,-0.47548 -7.435683,-0.90338 -7.483179,-0.95088 -0.124991,-0.12499 1.595298,-13.017357 1.762624,-13.209638 0.162497,-0.186731 16.202927,1.448805 16.453902,1.677696 0.155576,0.141887 -0.159279,11.562702 -0.3533,12.815302 -0.0888,0.57326 -0.0888,0.57326 -1.536011,0.55265 -0.795969,-0.0113 -4.775785,-0.40964 -8.844036,-0.88513 z"
         id="CO" />
      </a>
      <a xlink:href="./KS">
      <path
         style="fill:#0065cb;stroke-width:0.176389"
         d="m 90.98766,107.65034 c -3.783542,-0.12136 -7.148419,-0.2284 -7.477506,-0.23787 -0.59834,-0.0172 -0.59834,-0.0172 -0.482417,-3.32452 0.06376,-1.81901 0.164654,-4.00182 0.224215,-4.850692 l 0.108294,-1.543403 h 8.320442 c 9.099782,0 8.743782,-0.0436 8.743782,1.070772 0,0.523655 0.13486,0.77827 0.70539,1.331733 0.7054,0.6843 0.7054,0.6843 0.70556,4.25618 l 1.6e-4,3.57187 -1.984378,-0.0267 c -1.091407,-0.0147 -5.08,-0.12601 -8.863542,-0.24736 z"
         id="KS" />
      </a>
      <a xlink:href="./NV">
      <path
         style="fill:#0065cb;stroke-width:0.176389"
         d="m 41.98901,101.17053 c -2.792799,-4.243655 -5.124449,-7.837264 -5.181447,-7.985794 -0.057,-0.148532 0.358283,-2.454344 0.922844,-5.124025 0.916645,-4.334612 1.060591,-4.845048 1.345327,-4.770587 0.175369,0.04586 3.294784,0.745617 6.932034,1.555014 5.124744,1.140411 6.61204,1.531185 6.608108,1.736217 -0.0028,0.145521 -0.816908,4.544759 -1.80915,9.776084 -1.804076,9.511501 -1.804076,9.511501 -2.595598,9.525001 -0.791524,0.0135 -0.791524,0.0135 -0.967913,1.50867 l -0.176389,1.49516 z"
         id="NV" />
      </a>
      <a xlink:href="./KY">
      <path
         style="fill:#0065cb;stroke-width:0.176389"
         d="m 118.13668,108.69331 c 0.0611,-0.15919 -0.0195,-0.48865 -0.17899,-0.73212 -0.29005,-0.44268 -0.29005,-0.44268 0.32445,-0.34296 0.60401,0.098 0.6259,0.0795 1.28054,-1.08272 0.89836,-1.5949 1.82024,-2.28181 2.51307,-1.87255 0.46502,0.27469 0.5558,0.26265 2.02372,-0.2685 1.53685,-0.5561 1.53685,-0.5561 2.38058,-2.07092 0.7109,-1.27636 0.94091,-1.5471 1.46108,-1.71986 0.51054,-0.16955 0.62693,-0.30169 0.67264,-0.763675 0.0722,-0.72979 0.43616,-0.715843 0.89989,0.03448 0.50318,0.814165 2.10029,1.202065 3.01077,0.731245 0.79622,-0.41174 1.41392,-0.10455 1.41392,0.70317 0,0.38796 0.24115,0.87371 0.7952,1.60179 l 0.7952,1.04497 -1.61086,1.51013 -1.61086,1.51013 -6.09942,0.66608 c -5.08374,0.55517 -6.17083,0.72226 -6.52827,1.00342 -0.55371,0.43555 -1.70514,0.47129 -1.54266,0.0479 z"
         id="KY" />
      </a>
      <a xlink:href="./MO">
      <path
         style="fill:#0065cb;stroke-width:0.176389"
         d="m 114.99715,111.30914 c -0.0553,-0.0894 0.0544,-0.30271 0.24361,-0.47397 0.34073,-0.30836 0.34038,-0.3166 -0.0359,-0.84511 -0.38004,-0.53371 -0.38004,-0.53371 -6.32203,-0.41549 -6.96564,0.13859 -6.16039,0.81635 -6.16332,-5.18743 -0.002,-3.97825 -0.002,-3.97825 -0.6193,-4.576619 -0.40563,-0.393151 -0.61736,-0.761844 -0.61736,-1.075023 0,-0.26216 -0.23813,-0.929336 -0.52917,-1.482615 -0.29104,-0.553279 -0.52916,-1.104572 -0.52916,-1.225094 0,-0.418505 8.9765,-0.634382 9.31703,-0.224066 0.1034,0.124594 0.26874,0.727844 0.36741,1.340553 0.2057,1.277269 0.32911,1.465868 1.351,2.064735 0.70545,0.413423 0.75637,0.499113 0.96349,1.621429 0.28044,1.51964 0.30467,1.552 0.80787,1.07927 0.52485,-0.49307 0.5693,-0.18051 0.13035,0.91653 -0.29201,0.7298 -0.29201,0.7298 1.05834,1.99125 0.74268,0.69379 1.35078,1.37902 1.35132,1.52272 0.003,0.71025 0.38402,1.5842 0.69127,1.5842 0.17759,0 0.41749,0.11399 0.53311,0.25331 0.28338,0.34144 -0.0574,0.98141 -0.52265,0.98141 -0.34743,0 -0.38978,0.0951 -0.66707,1.49837 -0.13315,0.67381 -0.57505,1.02984 -0.80879,0.65164 z"
         id="MO" />
      </a>
      <a xlink:href="./TN">
      <path
         style="fill:#0065cb;stroke-width:0.176389"
         d="m 115.59391,113.94263 c 0,-0.20943 0.18489,-0.67686 0.41086,-1.03874 0.22598,-0.36187 0.51306,-1.1466 0.63796,-1.74385 0.22709,-1.08589 0.22709,-1.08589 1.6171,-1.20894 0.90475,-0.0801 1.52874,-0.23144 1.7874,-0.43353 0.31962,-0.24974 1.94182,-0.48063 8.29078,-1.18003 4.34137,-0.47824 7.8934,-0.84227 7.8934,-0.80896 0,0.33269 -0.60863,1.10139 -0.87205,1.10139 -0.1836,0 -1.29,0.60887 -2.45867,1.35306 -2.12484,1.35305 -2.12484,1.35305 -2.31183,2.25377 -0.18698,0.90071 -0.18698,0.90071 -6.57673,1.4019 -3.51436,0.27565 -6.84615,0.54247 -7.40398,0.59294 -0.94985,0.0859 -1.01424,0.0676 -1.01424,-0.28901 z"
         id="TN" />
      </a>
      <a xlink:href="./NC">
      <path
         style="fill:#0065cb;stroke-width:0.176389"
         d="m 145.94932,113.39619 c -1.92629,-1.48476 -2.01754,-1.51559 -3.4561,-1.16766 -0.8817,0.21324 -0.88218,0.21312 -1.68099,-0.44185 -0.79905,-0.65514 -0.79905,-0.65514 -2.86208,-0.43099 -1.9706,0.21412 -2.09344,0.25164 -2.7419,0.83749 -0.63386,0.57265 -0.78208,0.62125 -2.23545,0.73297 -1.79278,0.1378 -1.66934,0.18112 -1.47973,-0.51919 0.17635,-0.65136 3.28835,-2.71866 4.09252,-2.71866 0.3911,0 0.60704,-0.21108 1.26318,-1.23472 0.43529,-0.6791 0.89118,-1.23697 1.01308,-1.23972 0.1219,-0.003 3.55539,-0.55153 7.62998,-1.21951 4.07458,-0.66798 7.47265,-1.15307 7.55127,-1.07797 0.0786,0.0751 -0.1,0.34094 -0.39688,0.59076 -0.2969,0.24982 -0.53981,0.52598 -0.53981,0.61368 0,0.18222 0.77684,0.56887 1.14294,0.56887 0.13442,0 0.29949,0.17357 0.36682,0.38572 0.14672,0.46226 -1.08414,1.73094 -1.67932,1.73094 -0.48693,0 -0.45401,0.11973 0.17951,0.65281 0.53912,0.45364 0.53912,0.45364 0.0441,0.9749 -0.27226,0.2867 -0.77714,0.66644 -1.12195,0.84386 -0.83944,0.43194 -1.87514,1.79279 -2.02086,2.65526 -0.0645,0.38171 -0.20949,0.69509 -0.32223,0.69642 -0.11274,0.001 -0.36373,0.0427 -0.55776,0.0919 -0.25066,0.0636 -0.88413,-0.32005 -2.18834,-1.32532 z"
         id="NC" />
      </a>
      <a xlink:href="./CA">
      <path
         style="fill:#0065cb;stroke-width:0.176389"
         d="m 41.21656,117.73494 c -1.08334,-0.10854 -2.021321,-0.24896 -2.0844,-0.31206 -0.06308,-0.0631 -0.199155,-0.6981 -0.302388,-1.41111 -0.222688,-1.53805 -1.642729,-3.78475 -2.266952,-3.58663 -0.25826,0.082 -0.331174,-0.009 -0.376225,-0.46957 -0.0468,-0.47847 -0.149296,-0.59529 -0.631012,-0.71923 -0.421383,-0.10843 -0.741405,-0.39841 -1.197104,-1.08474 -0.573378,-0.86357 -0.735651,-0.97994 -2.077096,-1.48949 -1.455124,-0.55274 -1.455124,-0.55274 -1.294278,-1.74765 0.160847,-1.19491 0.160847,-1.19491 -0.926351,-3.81531 -1.087197,-2.62039 -1.087197,-2.62039 -0.618782,-3.234514 0.468415,-0.614125 0.468415,-0.614125 -0.191764,-1.290209 -0.649019,-0.664656 -0.658078,-0.692909 -0.535848,-1.671204 0.07547,-0.603999 0.222798,-1.032903 0.374857,-1.091254 0.419769,-0.16108 0.3245,-0.987587 -0.09837,-0.853375 -0.490056,0.155538 -1.060692,-0.818825 -1.061559,-1.812616 -3.98e-4,-0.455108 -0.176,-1.101535 -0.441632,-1.625734 -0.522044,-1.030203 -0.608297,-2.681226 -0.172573,-3.303309 0.242916,-0.346812 0.232783,-0.525201 -0.106717,-1.878832 -0.375117,-1.495639 -0.375117,-1.495639 0.262338,-2.528397 0.42612,-0.690369 0.718553,-1.458375 0.882072,-2.316558 0.134539,-0.706088 0.285145,-1.324326 0.334681,-1.373861 0.08016,-0.08016 8.929414,2.701821 9.099555,2.860668 0.03784,0.03533 -0.421245,2.362568 -1.020189,5.171644 l -1.088992,5.107411 5.562204,8.45219 c 3.803609,5.77987 5.562205,8.60126 5.562205,8.9237 0,0.25934 0.190717,0.94088 0.423815,1.51454 0.423816,1.04301 0.423816,1.04301 0.06044,1.36351 -0.199856,0.17627 -0.828093,1.03486 -1.396083,1.90799 -1.032706,1.5875 -1.032706,1.5875 -0.463977,2.07257 0.611713,0.52173 0.591942,0.58069 -0.105775,0.31542 -0.285655,-0.10861 -0.483937,-0.10861 -0.55106,0 -0.126319,0.20439 -0.944335,0.18735 -3.553044,-0.074 z"
         id="CA" />
      </a>
      <a xlink:href="./OK">
      <path
         style="fill:#0065cb;stroke-width:0.176389"
         d="m 96.757109,119.47881 c -0.758137,-0.35125 -0.981205,-0.37852 -1.903015,-0.23264 -1.023555,0.16199 -1.052936,0.15506 -1.485184,-0.35033 -0.355761,-0.41596 -0.679566,-0.55843 -1.675695,-0.73727 -0.813011,-0.14596 -1.32765,-0.33809 -1.506807,-0.56254 -0.149648,-0.18749 -0.665586,-0.44121 -1.146528,-0.56383 -0.874442,-0.22296 -0.874442,-0.22296 -0.922108,-3.86832 l -0.04767,-3.64535 -4.009279,-0.0474 c -4.009279,-0.0474 -4.009279,-0.0474 -4.009279,-0.57656 0,-0.52917 0,-0.52917 1.411111,-0.50189 7.85214,0.15177 20.300575,0.47409 20.360355,0.52718 0.22069,0.196 0.69924,5.64312 0.708,8.05889 0.0101,2.79251 0.0101,2.79251 -0.56314,2.44354 -0.57327,-0.34897 -0.57327,-0.34897 -2.462616,0.0527 -1.889344,0.4017 -1.889344,0.4017 -2.74815,0.004 z"
         id="OK" />
      </a>
      <a xlink:href="./SC">
      <path
         style="fill:#0065cb;stroke-width:0.176389"
         d="m 138.70625,118.28832 c -1.77446,-2.06213 -3.41441,-3.85107 -3.64432,-3.97544 -0.53039,-0.2869 -0.52962,-0.29157 0.15524,-0.93376 0.81304,-0.7624 1.42925,-0.98867 3.08192,-1.1317 1.45033,-0.12552 1.45033,-0.12552 2.19252,0.50977 0.8395,0.71858 0.749,0.70246 2.19814,0.39137 1.07848,-0.23153 1.07848,-0.23153 2.46944,0.80957 1.83172,1.37099 1.75581,1.25895 1.32514,1.95579 -0.20633,0.33385 -0.37514,0.85935 -0.37514,1.16777 0,0.47561 -0.31363,0.88765 -2.06518,2.71321 -1.13585,1.18384 -2.07559,2.17275 -2.08832,2.19758 -0.0127,0.0248 -1.47497,-1.64204 -3.24944,-3.70416 z"
         id="SC" />
      </a>
      <a xlink:href="./AS">
      <path
         style="fill:#0065cb;stroke-width:0.176389"
         d="m 104.62384,121.29615 c -0.0491,-0.6692 -0.10865,-0.7534 -0.6275,-0.88699 -0.57326,-0.1476 -0.57326,-0.1476 -0.57326,-3.2434 0,-1.70269 -0.0887,-3.8475 -0.19701,-4.76624 -0.10835,-0.91874 -0.16788,-1.69715 -0.13229,-1.7298 0.0356,-0.0326 2.60312,-0.11763 5.70562,-0.18887 l 5.6409,-0.12952 -0.86329,0.78159 -0.86329,0.78159 1.26027,0.22522 c 1.26027,0.22522 1.26027,0.22522 0.99912,0.73022 -0.14363,0.27776 -0.26114,0.69988 -0.26114,0.93805 0,0.23817 -0.27782,0.76556 -0.61737,1.17198 -0.4553,0.54496 -0.61736,0.90622 -0.61736,1.37626 0,0.48804 -0.1424,0.78369 -0.60791,1.26213 -0.57386,0.58981 -0.62046,0.731 -0.83199,2.52098 l -0.22408,1.89618 h -3.56759 c -3.56759,0 -3.56759,0 -3.62183,-0.73938 z"
         id="AS" />
      </a>
      <a xlink:href="./AZ">
      <path
         style="fill:#0065cb;stroke-width:0.176389"
         d="m 57.542917,125.40464 c -2.753075,-0.45869 -2.753075,-0.45869 -7.450854,-3.33931 -4.889198,-2.99799 -5.34806,-3.3311 -4.329555,-3.14311 0.569138,0.10505 0.613692,0.075 0.900506,-0.60737 0.300831,-0.71573 0.300399,-0.71905 -0.143032,-1.10048 -0.444776,-0.38258 -0.444776,-0.38258 0.282292,-1.52897 0.39989,-0.63052 1.011827,-1.39441 1.359862,-1.69754 0.632791,-0.55114 0.632791,-0.55114 0.107952,-1.80829 -0.52484,-1.25714 -0.52484,-1.25714 -0.299209,-3.06483 0.124097,-0.99422 0.22942,-1.92247 0.234052,-2.06277 0.0054,-0.16405 0.216008,-0.0539 0.590085,0.30868 0.319913,0.31007 0.624125,0.56377 0.676026,0.56377 0.0519,0 0.240003,-0.79375 0.418006,-1.76389 0.268923,-1.46567 0.37764,-1.76389 0.643028,-1.76389 0.175664,0 2.949386,0.43656 6.16383,0.97014 3.214443,0.53358 5.91493,0.97014 6.001084,0.97014 0.08615,0 0.156642,0.2049 0.156642,0.45533 0,0.46538 -2.452554,18.99886 -2.520298,19.04542 -0.02054,0.0141 -1.276224,-0.18075 -2.790417,-0.43303 z"
         id="AZ" />
      </a>
      <a xlink:href="./NM">
      <path
         style="fill:#0065cb;stroke-width:0.176389"
         d="m 61.971687,126.11335 c -0.596833,-0.10544 -0.615523,-0.13253 -0.562063,-0.81463 0.09607,-1.22574 2.439712,-18.60519 2.519728,-18.6852 0.11044,-0.11045 14.972679,1.60189 15.111882,1.74109 0.105015,0.10502 -0.920218,14.82623 -1.137418,16.33207 -0.08981,0.62268 -0.08981,0.62268 -4.52729,0.14534 -2.440612,-0.26254 -4.774821,-0.52138 -5.18713,-0.57521 -0.741289,-0.0968 -0.749653,-0.0918 -0.749653,0.44705 0,0.47527 -0.05072,0.53294 -0.396875,0.45119 -0.218281,-0.0516 -1.020913,-0.14968 -1.783625,-0.21808 -1.523418,-0.13662 -1.692347,-0.0523 -1.697355,0.84682 -0.0029,0.52574 -0.222384,0.57122 -1.590201,0.32956 z"
         id="NM" />
      </a>
      <a xlink:href="./GA">
      <path
         style="fill:#0065cb;stroke-width:0.176389"
         d="m 131.47514,128.30484 c -0.12894,-0.15536 -0.33594,-1.33054 -0.47541,-2.69898 -0.20848,-2.04556 -0.38753,-2.84782 -1.14736,-5.14096 -0.89656,-2.70577 -1.77919,-6.17861 -1.57666,-6.20361 2.32687,-0.28723 4.90568,-0.40205 4.74744,-0.21137 -0.1424,0.17157 0.0467,0.33094 0.80448,0.67785 0.89227,0.40849 1.32794,0.84809 4.38714,4.42677 1.86808,2.18528 3.36255,4.06482 3.32106,4.17677 -0.0415,0.11194 -0.2332,0.97743 -0.42601,1.92332 -0.35056,1.71979 -0.35056,1.71979 -1.20337,1.71979 -0.81677,0 -0.85282,0.0209 -0.85282,0.49468 0,0.45878 -0.0544,0.49727 -0.74965,0.53039 -0.84139,0.0401 -4.33235,0.33629 -5.70353,0.48395 -0.68443,0.0737 -0.95103,0.0314 -1.12531,-0.1786 z"
         id="GA" />
      </a>
      <a xlink:href="./AL">
      <path
         style="fill:#0065cb;stroke-width:0.176389"
         d="m 122.3643,130.67859 c -0.15527,-0.38806 -0.38915,-0.70556 -0.51974,-0.70556 -0.5171,0 -0.78259,-3.2357 -0.78259,-9.53776 0,-4.38411 0.0488,-5.6332 0.22048,-5.63852 0.12127,-0.004 1.49049,-0.11568 3.04271,-0.24872 1.55222,-0.13304 2.84655,-0.21808 2.87629,-0.18899 0.0297,0.0291 0.28105,1.03399 0.55848,2.2331 0.27743,1.19911 0.85873,3.17488 1.29177,4.3906 0.74183,2.08259 1.4509,6.31123 1.11467,6.64746 -0.0505,0.0505 -1.54414,0.24113 -3.31926,0.42368 -4.88773,0.50265 -4.44052,0.30269 -3.91779,1.75183 0.24406,0.67658 0.39531,1.30851 0.33612,1.40429 -0.23255,0.37627 -0.63228,0.14054 -0.90114,-0.53141 z"
         id="AL" />
      </a>
      <a xlink:href="./MS">
      <path
         style="fill:#0065cb;stroke-width:0.176389"
         d="m 117.54229,131.21914 c -0.29218,-0.41034 -0.3449,-0.66656 -0.25405,-1.23473 0.11465,-0.71694 0.11465,-0.71694 -2.46554,-0.71694 -1.4191,0 -2.57924,-0.0595 -2.57808,-0.13229 0.009,-0.54007 0.59077,-2.13708 1.05299,-2.88828 0.5591,-0.90866 0.5591,-0.90866 0.0223,-2.8687 -0.51198,-1.86952 -0.52754,-2.02519 -0.337,-3.37114 0.18571,-1.31182 0.24736,-1.45242 0.8762,-1.99812 0.58692,-0.50933 0.67643,-0.68661 0.67643,-1.33968 0,-1.2359 0.31283,-1.39289 3.19318,-1.60241 l 2.45126,-0.17831 0.006,5.82245 c 0.004,4.05572 0.0825,6.38444 0.259,7.67454 0.39352,2.87614 0.40296,2.82107 -0.48507,2.82847 -0.41231,0.003 -0.94809,0.11969 -1.19063,0.25834 -0.63564,0.36336 -0.81376,0.3266 -1.22661,-0.2532 z"
         id="MS" />
      </a>
      <a xlink:href="./LA">
      <path
         style="fill:#0065cb;stroke-width:0.176389"
         d="m 117.66611,135.59042 c -1.0146,-0.6935 -1.0146,-0.6935 -1.21893,-0.24503 -0.22709,0.49841 -0.35869,0.53678 -0.88151,0.25697 -0.2898,-0.15509 -0.43507,-0.11893 -0.76415,0.19023 -0.48992,0.46025 -0.80214,0.33688 -2.77053,-1.09481 -1.25228,-0.91083 -1.68029,-0.97942 -1.85852,-0.29783 -0.0838,0.32038 -0.19041,0.35518 -0.8211,0.26805 -0.39865,-0.0551 -1.4251,-0.15317 -2.281,-0.21799 -1.55617,-0.11784 -1.55617,-0.11784 -1.42094,-0.57762 0.0744,-0.25288 0.1505,-0.89634 0.16918,-1.42992 0.0187,-0.53357 0.16201,-1.31746 0.31851,-1.74196 0.15651,-0.42451 0.28457,-0.90692 0.28457,-1.07202 0,-0.52669 -0.89754,-2.5495 -1.33845,-3.0165 -0.38615,-0.40901 -0.42544,-0.60042 -0.42544,-2.07257 v -1.62195 h 3.77984 c 3.77985,0 3.77985,0 4.05695,0.95319 0.35681,1.22739 0.3543,1.26457 -0.14303,2.11812 -0.23107,0.39658 -0.59136,1.35606 -0.80064,2.13217 -0.20928,0.77611 -0.42245,1.55001 -0.4737,1.71979 -0.0859,0.28444 0.11546,0.30868 2.56453,0.30868 2.65772,0 2.65772,0 2.65772,0.48992 0,0.26945 0.12966,0.67504 0.28815,0.90131 0.30369,0.43358 0.22512,0.44018 -0.77322,0.065 -0.12127,-0.0456 -0.22157,0.0249 -0.2229,0.15649 -10e-4,0.13165 -0.0469,0.40507 -0.10128,0.60761 -0.0885,0.32973 -0.0375,0.3597 0.48748,0.28652 0.32249,-0.045 0.67352,-0.15085 0.78006,-0.23533 0.12014,-0.0953 0.316,-0.0185 0.51571,0.20219 0.3217,0.35548 0.32244,0.35538 0.80619,-0.10808 0.43499,-0.41675 0.86564,-0.46029 0.86564,-0.0875 0,0.0773 -0.27781,0.50445 -0.61736,0.94915 -0.78314,1.02565 -0.79573,0.96752 0.38734,1.78901 0.63096,0.43812 0.90709,0.72382 0.74756,0.77349 -0.13912,0.0433 -0.37202,0.1386 -0.51754,0.21175 -0.17302,0.087 -0.61569,-0.10699 -1.27919,-0.5605 z"
         id="LA" />
      </a>
      <a xlink:href="./FL">
      <path
         style="fill:#0065cb;stroke-width:0.176389"
         d="m 144.20064,145.49114 c -0.60307,-0.6775 -1.07581,-1.05444 -1.32292,-1.05481 -0.29777,-5.3e-4 -0.58064,-0.34321 -1.254,-1.51951 -0.59688,-1.0427 -1.01166,-1.57027 -1.32292,-1.68265 -0.24938,-0.09 -0.67575,-0.52891 -0.94749,-0.97529 -0.48071,-0.78963 -0.48667,-0.83008 -0.22049,-1.49535 0.35303,-0.8823 0.36419,-0.83978 -0.27904,-1.06401 -0.55263,-0.19265 -0.55263,-0.19265 -0.45674,-1.59151 0.10962,-1.59939 -0.18809,-2.42772 -0.87328,-2.42971 -0.41607,-0.001 -1.00111,-0.43383 -2.57385,-1.90329 -1.28241,-1.1982 -1.94659,-1.18225 -3.43487,0.0824 l -0.92402,0.7852 -0.93988,-0.8889 c -1.23257,-1.16571 -2.83461,-1.61885 -4.14491,-1.17239 -0.44162,0.15048 -0.90468,0.27359 -1.02902,0.27359 -0.2133,0 -0.73208,-1.33339 -0.57719,-1.4835 0.0398,-0.0386 1.5408,-0.22592 3.33556,-0.41635 3.26319,-0.34622 3.26319,-0.34622 3.63158,0.1006 0.38897,0.47178 1.05211,0.46384 6.70092,-0.0803 1.02227,-0.0985 1.10219,-0.0768 1.7198,0.46543 0.6477,0.56868 0.6477,0.56868 0.6477,-0.41973 0,-0.97209 0.008,-0.98841 0.50934,-0.98841 0.47364,0 0.54985,0.10198 1.08751,1.45521 0.39662,0.99825 1.01212,2.0299 1.96011,3.28535 1.3019,1.72416 1.38193,1.88185 1.38193,2.72293 0,0.77053 0.1428,1.13758 1.04287,2.68053 1.04286,1.78774 1.04286,1.78774 1.09242,4.50902 0.0325,1.78676 -0.0192,2.8469 -0.15052,3.0871 -0.15578,0.28484 -1.25356,0.80076 -1.65246,0.77659 -0.0373,-0.002 -0.49001,-0.4785 -1.00614,-1.05833 z"
         id="FL" />
      </a>
      <a xlink:href="./TX">
      <path
         style="fill:#0065cb;stroke-width:0.176389"
         d="m 93.854803,147.66943 c -0.176297,-0.1763 -0.76579,-0.35191 -1.463121,-0.43586 -0.668936,-0.0805 -1.59509,-0.35037 -2.167888,-0.63162 -1.000023,-0.49102 -1.000023,-0.49102 -1.568796,-2.16588 -0.312826,-0.92117 -0.570794,-1.86352 -0.573264,-2.0941 -0.0029,-0.2671 -0.468607,-0.93961 -1.28331,-1.85304 -1.113143,-1.24803 -1.335201,-1.61376 -1.714013,-2.82301 -0.382158,-1.21992 -0.583124,-1.54763 -1.649021,-2.68898 -1.213828,-1.29975 -1.213828,-1.29975 -2.739807,-1.29787 -1.525979,0.002 -1.525979,0.002 -2.319729,1.23409 -0.436562,0.6777 -0.880184,1.20019 -0.985825,1.16108 -0.105641,-0.0391 -1.083559,-0.68332 -2.173148,-1.43157 -2.10423,-1.44502 -2.309082,-1.7114 -2.309082,-3.00264 0,-0.73188 -0.110399,-0.91009 -1.807987,-2.9186 -2.061324,-2.43885 -2.799074,-3.37237 -2.724273,-3.44717 0.02867,-0.0287 2.329875,0.1969 5.113791,0.50126 2.783917,0.30435 5.103343,0.5117 5.154279,0.46077 0.06372,-0.0637 1.316537,-15.06289 1.319564,-15.79834 1e-4,-0.0242 1.625725,-0.0441 3.6125,-0.0441 h 3.612321 l 0.04775,3.57107 0.04775,3.57107 1.058334,0.28018 c 0.673726,0.17836 1.078194,0.38249 1.112985,0.56172 0.05195,0.26762 0.494281,0.40795 2.377692,0.75435 0.458843,0.0844 0.80378,0.30036 1.1,0.68873 0.431545,0.56578 0.431545,0.56578 1.603797,0.39722 1.040305,-0.14958 1.278132,-0.12467 2.112911,0.22133 0.940659,0.38988 0.940659,0.38988 2.780817,-0.003 1.84016,-0.39266 1.84016,-0.39266 2.51147,0.0298 0.36923,0.23235 0.91316,0.50882 1.20874,0.61437 0.53742,0.19191 0.53742,0.19191 0.58646,2.81773 0.047,2.51542 0.0673,2.64482 0.48222,3.07796 0.23825,0.24868 0.62874,0.93341 0.86775,1.52161 0.43456,1.06946 0.43456,1.06946 0.0745,2.26971 -0.19903,0.66342 -0.31624,1.41944 -0.26206,1.69033 0.3131,1.5655 -1.30701,3.08216 -2.41631,2.26202 -0.65905,-0.48726 -1.18736,-0.13529 -0.8219,0.54756 0.40256,0.7522 -3.132589,3.54698 -3.892531,3.0773 -0.09868,-0.061 -0.851115,0.54473 -1.672066,1.34604 -1.326395,1.29466 -1.49264,1.52766 -1.49264,2.09195 0,0.34926 -0.12383,0.81181 -0.275181,1.0279 -0.380876,0.54377 -0.180154,2.6378 0.371348,3.87406 0.398877,0.89413 0.401626,0.93121 0.0817,1.10243 -0.451541,0.24166 -0.583812,0.22481 -0.926694,-0.11808 z"
         id="TX" />
      </a>
      <a xlink:href="./AK">
      <path
         style="fill:#0065cb;stroke-width:0.176389"
         d="m 54.606373,148.3362 c -0.874934,-0.95983 -1.679919,-2.01155 -1.788853,-2.33715 -0.390384,-1.16686 -4.186423,-3.13379 -5.553154,-2.87739 -0.482022,0.0904 -0.69263,0.007 -1.327941,-0.52336 -0.66141,-0.55259 -0.873315,-0.63084 -1.708509,-0.63084 -0.931577,0 -0.953451,0.0116 -0.953451,0.50482 0,0.47249 -0.06401,0.51767 -0.999541,0.70555 -0.549746,0.11041 -1.023761,0.17652 -1.053365,0.14691 -0.0296,-0.0296 0.217532,-0.45676 0.549189,-0.94925 0.522527,-0.77591 0.572057,-0.93776 0.371081,-1.21261 -0.213965,-0.29261 -0.356716,-0.21132 -1.842704,1.04942 -1.555435,1.31966 -1.857158,1.68888 -1.390285,1.70131 0.386431,0.0103 -0.533621,0.6507 -2.744971,1.91069 -1.792605,1.02139 -2.360599,1.25702 -3.41833,1.41807 -1.968574,0.29974 -2.038692,0.2119 -0.314475,-0.39397 1.712369,-0.6017 3.178691,-1.50373 3.443564,-2.11835 0.09038,-0.20974 0.290151,-0.55432 0.443927,-0.76574 0.279596,-0.3844 0.279596,-0.3844 -0.611696,-0.14928 -0.891289,0.23512 -0.891289,0.23512 -1.262339,-0.36525 -0.264866,-0.42856 -0.499578,-0.60037 -0.82018,-0.60037 -0.423625,0 -0.442855,-0.0392 -0.338626,-0.69106 0.109465,-0.68455 0.10327,-0.69382 -0.658111,-0.98459 -0.722475,-0.27592 -0.785994,-0.35604 -1.058099,-1.33475 -0.424866,-1.52816 -0.396761,-1.62872 0.683072,-2.444 0.827706,-0.62493 1.058809,-0.71811 1.55167,-0.62565 0.532315,0.0999 1.891032,-0.2717 2.29637,-0.62798 0.08046,-0.0707 0.09207,-0.49013 0.0258,-0.93203 -0.120484,-0.80346 -0.120484,-0.80346 -0.696667,-0.52869 -0.558158,0.26616 -0.611388,0.25614 -1.7015,-0.32026 -1.088258,-0.57542 -1.123312,-0.61535 -1.064394,-1.21238 0.07583,-0.7684 0.251821,-0.98859 0.892593,-1.11674 0.277548,-0.0555 0.712331,-0.15306 0.966184,-0.21677 0.423663,-0.10634 0.46155,-0.0708 0.46155,0.43244 0,0.46725 0.06518,0.54829 0.440972,0.54829 0.242535,0 0.492517,0.0198 0.555514,0.0441 0.063,0.0242 0.214325,-0.24412 0.336282,-0.59639 0.212799,-0.61465 0.201067,-0.65576 -0.290931,-1.01951 -0.360507,-0.26654 -0.51267,-0.53051 -0.51267,-0.88939 0,-0.29171 -0.19564,-0.74286 -0.456652,-1.05305 -0.456653,-0.5427 -0.456653,-0.5427 0.396875,-0.54631 0.753421,-0.003 1.008267,-0.11697 2.172884,-0.97014 1.297072,-0.95021 1.339906,-0.96653 2.536167,-0.96653 1.031575,0 1.35902,0.0814 2.150978,0.53448 1.15377,0.66012 3.590371,1.4058 4.593622,1.4058 0.411603,0 0.992425,0.1389 1.290716,0.30868 0.542345,0.30868 0.542345,0.30868 0.543462,6.87087 0.0011,6.5622 0.0011,6.5622 0.650386,6.74147 0.357101,0.0986 0.98806,0.51177 1.402135,0.91815 0.752861,0.73888 0.752861,0.73888 1.726784,0.36618 0.973922,-0.3727 0.973922,-0.3727 2.455978,1.51549 0.955688,1.21757 1.740615,2.03315 2.210056,2.29635 0.676005,0.37901 0.727998,0.46205 0.727998,1.1627 0,0.72312 -0.0284,0.76305 -0.681923,0.95885 -0.375058,0.11237 -0.761513,0.20431 -0.85879,0.20431 -0.09728,0 -0.892722,-0.78531 -1.767657,-1.74515 z"
         id="AK" />
      </a>
    </g>
  </g>
</svg>
